<svg width="80" height="80" viewBox="0 0 80 80" fill="none" xmlns="http://www.w3.org/2000/svg">
<path d="M60.8437 41.2696C60.2793 51.9015 51.76 60.423 41.1281 60.9896V64.8452C53.9718 64.3452 64.3081 54.0822 64.9215 41.2696H60.8437ZM40.9859 15.2667V19.2978C51.64 19.7911 60.2059 28.2726 60.8326 38.8933H64.9237C64.3281 26.0089 53.9096 15.6948 40.9859 15.2667ZM19.1585 41.2696H15.363C15.9785 54.0822 26.3126 64.3452 39.1563 64.8452V61.0007C28.3933 60.5719 19.7274 51.9941 19.1585 41.2696ZM39.0163 19.2993V15.2748C26.2237 15.8437 15.9541 26.1044 15.363 38.8926H19.1696C19.7963 28.2748 28.3622 19.7926 39.0163 19.2993Z" fill="#B7AB98"/>
<path d="M18.7993 7.74889C18.7193 7.80222 18.6393 7.85556 18.5593 7.90889C18.6993 7.81556 18.8393 7.72222 18.9815 7.63111C18.9193 7.66889 18.8593 7.70889 18.7993 7.74889Z" fill="url(#paint0_linear_219_669)"/>
<path d="M40.0007 66.6519V69.4615C24.9852 69.4615 12.5585 58.1704 10.7622 43.6341L14.0756 46.197C16.8674 57.9274 27.417 66.6519 40.0007 66.6519Z" fill="#EB5939"/>
<path d="M40 1.40741L41.3926 5.69185H45.897L42.2526 8.33926L43.6452 12.6237L40.9867 10.6933V13.3674C43.8007 13.4674 46.5015 14.0074 49.0267 14.9156L59.5867 6.74222C53.8452 3.35111 47.1489 1.40741 40 1.40741ZM49.9096 13.3474L48.4148 10.9622L45.683 11.6459L47.4889 9.48741L45.9941 7.10222L48.6059 8.15259L50.4141 5.99185L50.2207 8.80148L52.8348 9.85185L50.103 10.5378L49.9096 13.3474ZM37.7481 8.33926L34.1037 5.69185H38.6081L40 1.40741C32.8504 1.40741 26.1548 3.35111 20.4133 6.74222L30.9741 14.9156C33.4993 14.0074 36.2022 13.4674 39.0163 13.3674V10.6911L36.3556 12.6237L37.7481 8.33926ZM31.5867 10.9622L30.0896 13.3474L29.8985 10.5378L27.1674 9.85185L29.7793 8.80148L29.5881 5.99185L31.3941 8.15259L34.0081 7.10222L32.5111 9.48741L34.3193 11.6459L31.5867 10.9622Z" fill="#EB5939"/>
<path d="M25.423 13.1556C22.6444 14.6659 20.1259 16.5911 17.9519 18.8637L11.5178 13.8911C13.6296 11.6193 16.0133 9.60445 18.6163 7.89259L25.423 13.1556Z" fill="#B7AB98"/>
<path d="M28.9207 15.8607C25.9978 17.2022 23.3615 19.0615 21.1274 21.32L21.0807 21.2822L18.8111 19.5274C21.003 17.26 23.5481 15.3496 26.36 13.8793L28.9207 15.8607Z" fill="#B7AB98"/>
<path d="M16.6785 20.2733C15.8059 21.3037 14.9993 22.3963 14.2644 23.5422C13.3407 24.9837 12.5452 26.4896 11.8837 28.0511L5.2363 22.9096C6.61111 20.1733 8.30148 17.6259 10.26 15.3096L16.6785 20.2733Z" fill="#B7AB98"/>
<path d="M19.8393 22.7163C17.8541 25.0282 16.2615 27.6867 15.1622 30.5874L15.0022 30.463L12.7704 28.737C13.4319 27.14 14.2363 25.5963 15.1778 24.1267C15.8948 23.0074 16.6837 21.9415 17.5363 20.937L19.7748 22.6674L19.8393 22.7163Z" fill="#B7AB98"/>
<path d="M11.1689 29.8948C10.0407 33.12 9.4563 36.5311 9.4563 40V40.0556L1.62741 33.9993C2.16519 30.7326 3.10667 27.603 4.40593 24.6644L11.1689 29.8948Z" fill="#B7AB98"/>
<path d="M13.4452 40C13.4452 41.117 13.5141 42.2163 13.6496 43.2978L13.2608 42.9978L10.5533 40.9037C10.5445 40.6037 10.54 40.3015 10.54 40C10.54 36.7748 11.0622 33.6037 12.0748 30.5963L14.3356 32.3444L14.5245 32.4911C13.8207 34.8719 13.4452 37.3926 13.4452 40Z" fill="#B7AB98"/>
<path d="M61.0193 7.63111C61.1615 7.72222 61.3015 7.81556 61.4415 7.90889C61.3615 7.85556 61.2815 7.80222 61.2015 7.74889C61.1415 7.70889 61.0815 7.66889 61.0193 7.63111Z" fill="url(#paint1_linear_219_669)"/>
<path d="M69.2378 43.6333C67.443 58.1696 55.0148 69.4607 40.0007 69.4607V66.6519C52.5844 66.6519 63.1341 57.9281 65.9259 46.197L69.2378 43.6333Z" fill="#EB5939"/>
<path d="M61.1889 19.5296L58.9215 21.2822L58.8748 21.32C56.6407 19.0615 54.0044 17.2022 51.0815 15.8607L53.64 13.8822C56.4519 15.3519 58.9993 17.2622 61.1889 19.5296Z" fill="#B7AB98"/>
<path d="M68.4845 13.8904L62.0504 18.863C59.8741 16.5933 57.3578 14.6652 54.5793 13.1548L61.3867 7.89111C63.9896 9.6037 66.3726 11.6185 68.4845 13.8904Z" fill="#B7AB98"/>
<path d="M67.2296 28.7378L65 30.4637L64.84 30.5881C63.7407 27.6874 62.1481 25.0289 60.163 22.7163L60.2274 22.6674L62.4637 20.937C63.3407 21.9696 64.1496 23.0644 64.8822 24.217C65.8 25.6593 66.5837 27.1718 67.2296 28.7378Z" fill="#B7AB98"/>
<path d="M74.7659 22.9096L68.1163 28.0533C67.4704 26.5252 66.6948 25.0504 65.7956 23.6378C65.0452 22.4563 64.2185 21.3326 63.3237 20.2733L69.7422 15.3096C71.7007 17.6259 73.3911 20.1733 74.7659 22.9096Z" fill="#B7AB98"/>
<path d="M69.4622 40C69.4622 40.3022 69.4578 40.6044 69.4489 40.9037L66.7415 42.9978L66.3526 43.2978C66.4882 42.2163 66.557 41.117 66.557 40C66.557 37.3926 66.1815 34.8719 65.4778 32.4911L65.6667 32.3444L67.9274 30.5963C68.94 33.6059 69.4622 36.7778 69.4622 40Z" fill="#B7AB98"/>
<path d="M70.5437 40.0578V40C70.5437 36.5333 69.9593 33.1215 68.8311 29.897L75.5963 24.6644C76.8956 27.603 77.837 30.7319 78.3748 33.9993L70.5437 40.0578Z" fill="#B7AB98"/>
<path d="M55.1452 27.9C51.723 23.6978 47.2807 21.2978 41.9422 20.7674C41.2607 20.7007 40.6259 20.6667 40 20.6622C39.3763 20.6659 38.7415 20.7 38.06 20.7674C32.7215 21.2978 28.2793 23.697 24.857 27.9C21.823 31.6237 20.3704 36.0141 20.54 40.9481C20.7578 47.3059 24.2178 53.1185 29.797 56.4978C32.8637 58.3548 36.3918 59.3363 40.0007 59.3363C43.6096 59.3363 47.1378 58.3548 50.2044 56.4978C55.7837 53.1185 59.2444 47.3059 59.4615 40.9481C59.6304 36.0141 58.1785 31.6237 55.1452 27.9ZM41.1311 54.9911C41.1289 53.277 41.1289 51.5652 41.1289 49.8511V49.4481C41.1281 49.04 41.1274 48.6326 41.1333 48.2244C41.1341 48.1452 41.1393 48.1044 41.143 48.0837C41.1637 48.0807 41.2052 48.0778 41.2874 48.0815C41.3741 48.0837 41.46 48.0933 41.5467 48.1022C41.6733 48.1156 41.8037 48.1289 41.9385 48.1244C42.643 48.1007 43.3459 48.24 44.0259 48.3748C44.3481 48.4385 44.6815 48.5052 45.0148 48.5541C45.403 48.6104 45.7778 48.7222 46.1748 48.8407C46.3763 48.9007 46.5852 48.963 46.7941 49.0163C46.8207 49.023 46.84 49.0296 46.8526 49.0348C46.8481 49.0467 46.84 49.063 46.8281 49.0844C46.6718 49.3652 46.5363 49.6585 46.4052 49.9422C46.3148 50.137 46.2252 50.3319 46.1281 50.5237C45.8674 51.0385 45.5726 51.5615 45.2289 52.1215C44.8578 52.7207 44.4474 53.28 44.0948 53.7481C43.7807 54.1674 43.3615 54.7141 42.897 55.2267C42.4504 55.7193 41.9452 56.2259 41.3541 56.777L41.2748 56.8519C41.2304 56.8948 41.1844 56.9378 41.1385 56.9793V56.9407C41.1333 56.2904 41.1311 55.64 41.1311 54.9911ZM41.137 36.4467C41.1378 35.8644 41.1385 35.283 41.1407 34.7007C41.1407 34.6607 41.1415 34.5481 41.1518 34.5015C41.1978 34.4896 41.3074 34.4852 41.3696 34.4822L41.6555 34.4689C42.0326 34.4519 42.4222 34.4341 42.8059 34.397C43.2867 34.3511 43.7637 34.2615 44.2252 34.1748C44.4674 34.1296 44.7089 34.0844 44.9518 34.0452C45.7578 33.9133 46.5459 33.6859 47.3074 33.4652L47.4363 33.4281C47.5111 33.4067 47.5511 33.4007 47.5718 33.3993C47.5763 33.4126 47.583 33.4348 47.5889 33.4704C47.6407 33.7667 47.7304 34.0511 47.817 34.3259C47.9096 34.62 47.997 34.8978 48.043 35.1919C48.0822 35.4407 48.143 35.6874 48.2007 35.9252C48.2815 36.2541 48.357 36.5644 48.3837 36.883C48.4104 37.2163 48.4504 37.5519 48.4889 37.8763C48.5259 38.1837 48.5637 38.5015 48.5896 38.8133C48.5985 38.9289 48.5978 38.9844 48.5941 39.0111C48.5711 39.0163 48.52 39.0237 48.4059 39.0237C47.2141 39.0259 46.02 39.0259 44.8259 39.0259L44.1267 39.0274C43.1733 39.0267 42.2215 39.0267 41.2689 39.0319C41.1711 39.0319 41.1437 39.02 41.1415 39.02C41.1415 39.02 41.1281 38.9993 41.1281 38.9267C41.1348 38.0993 41.1355 37.2733 41.137 36.4467ZM45.5259 41.2726C45.9326 41.2726 46.3378 41.2719 46.7452 41.2726C47.3281 41.2726 47.9133 41.2726 48.4978 41.2763C48.5667 41.2763 48.5918 41.2822 48.5926 41.2778C48.5948 41.2844 48.6007 41.3067 48.6 41.3548C48.5852 42.0207 48.4963 42.6948 48.4104 43.3474L48.3667 43.6837C48.2467 44.617 48.0067 45.5363 47.8096 46.2333C47.7874 46.3119 47.7607 46.3896 47.7333 46.4674C47.6837 46.6119 47.6318 46.7615 47.6059 46.9259L47.4111 46.863C47.0896 46.7585 46.757 46.6511 46.4089 46.5844C46.1607 46.5356 45.9089 46.4726 45.6652 46.4119C45.3326 46.3289 44.9896 46.243 44.6378 46.1881C44.4415 46.157 44.2452 46.1244 44.0489 46.0919C43.2163 45.9533 42.357 45.8096 41.483 45.8096C41.417 45.8096 41.3504 45.8104 41.2844 45.8119C41.2467 45.8126 41.1807 45.8148 41.1348 45.8126C41.1311 45.7667 41.1311 45.6948 41.1311 45.6385C41.1311 44.3289 41.1311 43.0193 41.1289 41.7044C41.1289 41.5207 41.1289 41.3319 41.1474 41.297C41.1881 41.2726 41.3748 41.2726 41.5548 41.2726H45.5259ZM57.0096 39.0274C56.0689 39.0296 55.1296 39.0296 54.1889 39.0296L53.5267 39.0259C53.277 39.0252 53.0274 39.0244 52.777 39.023C52.4407 39.0215 52.0985 39.02 51.7548 39.02C51.4711 39.02 51.1874 39.0215 50.9052 39.0244C50.8837 39.0244 50.8674 39.0237 50.8563 39.0222C50.8541 39.0089 50.8518 38.9874 50.8511 38.9541C50.8459 38.7956 50.8267 38.6385 50.8089 38.4867C50.7859 38.2948 50.7644 38.1133 50.7681 37.9341C50.7844 37.1719 50.6304 36.4333 50.4815 35.7193C50.4296 35.4689 50.377 35.2178 50.3318 34.9674C50.1904 34.1667 49.9741 33.3867 49.6896 32.6489C49.6889 32.6467 49.6881 32.6444 49.6874 32.6422C49.6911 32.64 49.6948 32.6378 49.6993 32.6356C49.7756 32.5963 49.8607 32.5667 49.9504 32.5363C50.0281 32.5096 50.1089 32.4822 50.1874 32.4459L50.3681 32.3659C50.8555 32.1504 51.36 31.9274 51.8363 31.6622L51.9911 31.5756C52.7 31.18 53.4318 30.7711 54.1141 30.2956C54.1622 30.3637 54.2126 30.4319 54.263 30.4993C54.38 30.657 54.4911 30.8059 54.5778 30.9644C54.6785 31.1496 54.7822 31.3333 54.8859 31.517C55.1052 31.9037 55.3318 32.3037 55.5193 32.7133C55.7859 33.2933 56.0874 33.9511 56.2978 34.6304C56.3437 34.7815 56.3911 34.9311 56.4385 35.0807C56.5267 35.3593 56.6178 35.6467 56.6948 35.9319C56.9267 36.7919 57.0733 37.7252 57.1578 38.8844C57.1615 38.9341 57.1644 38.9874 57.1659 39.0267C57.1215 39.0274 57.06 39.0274 57.0096 39.0274ZM52.6748 28.5378L52.6437 28.5578C52.2652 28.7948 51.8733 29.04 51.48 29.2593C50.6015 29.7496 49.6867 30.1726 48.9867 30.4867C48.9333 30.5111 48.9037 30.5193 48.8881 30.5222C48.8815 30.5119 48.8696 30.4911 48.8555 30.4533C48.7067 30.0593 48.5178 29.6807 48.3348 29.3156C48.2533 29.1533 48.1726 28.9904 48.0941 28.8259C47.9126 28.4459 47.6993 28.0815 47.4926 27.7296C47.3889 27.5526 47.2852 27.3748 47.1852 27.1963C46.9637 26.7985 46.6889 26.4304 46.423 26.0741C46.3489 25.9748 46.2748 25.8756 46.2022 25.7763C45.8815 25.3341 45.537 24.8637 45.163 24.4052C44.957 24.1541 44.7326 23.9178 44.5148 23.6889C44.4422 23.6126 44.3704 23.5363 44.2978 23.4593C44.3185 23.4637 44.3407 23.4696 44.3644 23.4778C44.5667 23.5444 44.7696 23.6089 44.9726 23.6733C45.4422 23.8222 45.9281 23.9763 46.3941 24.16C46.6793 24.2719 46.963 24.403 47.237 24.5289C47.3844 24.597 47.5318 24.6652 47.68 24.7304C48.0193 24.8815 48.3504 25.0785 48.6711 25.2696C48.7541 25.3193 48.837 25.3689 48.92 25.417C49.2304 25.6015 49.4926 25.7726 49.7207 25.94C49.9481 26.1074 50.177 26.277 50.4052 26.4459L50.5489 26.5526C50.9489 26.8481 51.3274 27.1881 51.6615 27.4889C51.8778 27.6815 52.0859 27.8933 52.2874 28.0985C52.4118 28.2252 52.5356 28.3511 52.663 28.4756C52.6815 28.4933 52.6948 28.5082 52.7037 28.5193C52.6963 28.5244 52.6867 28.5311 52.6748 28.5378ZM45.5526 28.9111C45.7378 29.1704 45.8889 29.4696 46.0355 29.7593L46.0556 29.7985C46.1822 30.0496 46.3022 30.303 46.423 30.557C46.5318 30.7867 46.6407 31.0163 46.7541 31.2444C46.7615 31.26 46.7681 31.2726 46.7726 31.2837C46.7681 31.2844 46.763 31.2852 46.7578 31.2867C46.377 31.3511 46.0044 31.4541 45.6444 31.5541C45.3704 31.6296 45.0874 31.7081 44.8074 31.7674C43.7859 31.9837 42.6733 32.1311 41.4044 32.2178C41.3281 32.223 41.2089 32.2311 41.1526 32.2252C41.1444 32.1704 41.1444 32.0556 41.1444 31.9607C41.143 31.0393 41.1437 30.1163 41.1444 29.1941L41.1407 23.5311C41.7563 24.0674 42.2881 24.5941 42.7652 25.1393C42.8548 25.2422 42.9452 25.3452 43.0355 25.4481C43.3741 25.8333 43.7237 26.2319 44.0341 26.6444C44.3733 27.0963 44.6948 27.5696 44.9644 27.9726C45.0511 28.1022 45.1333 28.24 45.2126 28.3733C45.3155 28.5526 45.4252 28.7378 45.5526 28.9111ZM49.3918 54.5882C49.2674 54.6748 49.1504 54.757 49.0244 54.8267C48.9178 54.8859 48.8126 54.9467 48.7067 55.0067C48.5022 55.1237 48.2911 55.2444 48.0793 55.3541C47.9844 55.4037 47.8896 55.4548 47.7948 55.5059C47.4674 55.6822 47.1281 55.8637 46.7837 55.9933C46.6356 56.0481 46.4881 56.1074 46.3415 56.1667C46.0096 56.3 45.6659 56.4378 45.3163 56.5222C45.1844 56.5548 45.0593 56.6007 44.9378 56.6459C44.7904 56.7007 44.6481 56.7533 44.5015 56.7785C44.5022 56.7785 44.5022 56.7778 44.503 56.777C44.7496 56.5563 44.9541 56.3015 45.1526 56.0548L45.2155 55.977C45.497 55.6289 45.7689 55.2682 46.0311 54.9185L46.1289 54.7882C46.5141 54.2733 46.8763 53.7333 47.2355 53.1378L47.3696 52.9185C47.4852 52.7311 47.6044 52.5363 47.7141 52.3393L47.7563 52.2637C47.9563 51.9074 48.1622 51.5385 48.3474 51.1644C48.5652 50.7178 48.763 50.2644 48.9637 49.7993C48.9637 49.7985 48.9644 49.7978 48.9644 49.797C48.9652 49.7978 48.9667 49.7978 48.9674 49.7985C49.077 49.8496 49.1889 49.897 49.3 49.9437C49.4622 50.0126 49.6156 50.077 49.7644 50.1533C49.9296 50.237 50.0956 50.3193 50.2607 50.4015C50.5504 50.5452 50.8504 50.6941 51.14 50.8474C51.4356 51.0037 51.7274 51.1807 52.0089 51.3526C52.24 51.4933 52.4785 51.6385 52.7215 51.7733C52.717 51.7778 52.7126 51.7822 52.7074 51.7874C52.5956 51.8941 52.4815 52.0111 52.337 52.1674C51.9481 52.5867 51.5052 52.9674 51.0778 53.3356C50.9659 53.4319 50.8541 53.5281 50.7437 53.6244C50.4496 53.8793 50.1037 54.1304 49.6867 54.3896C49.5859 54.4526 49.4889 54.5207 49.3918 54.5882ZM49.7385 47.6911C49.7348 47.6896 49.7311 47.6889 49.7281 47.6874C49.7289 47.6837 49.7304 47.68 49.7318 47.6763C50.0341 46.7696 50.2437 45.8615 50.3918 45.1719C50.6393 44.0289 50.7896 42.7741 50.8526 41.3363C50.8541 41.3119 50.8556 41.2948 50.8578 41.283C50.8615 41.283 50.8667 41.283 50.8718 41.283C50.9289 41.2852 50.98 41.2807 51.0252 41.2756C51.0518 41.2726 51.0785 41.2696 51.1059 41.2696H53.8778V41.2815L54.837 41.2822C55.6044 41.2822 56.3696 41.2837 57.1341 41.2778C57.1563 41.2778 57.1733 41.2785 57.1867 41.28C57.1852 41.2896 57.183 41.3015 57.18 41.3163V41.317C57.1318 41.5326 57.1059 41.76 57.1037 41.9926C57.0956 42.7778 56.9044 43.5548 56.7193 44.3059C56.6874 44.4348 56.6563 44.563 56.6252 44.6919C56.4518 45.4178 56.1926 46.16 55.8341 46.9615C55.5733 47.543 55.2822 48.163 54.923 48.7578L54.8578 48.863C54.7978 48.9593 54.7378 49.0556 54.6822 49.1548C54.5526 49.3852 54.3948 49.6111 54.243 49.8289C54.2022 49.8874 54.1607 49.9467 54.12 50.0059C53.9163 49.8393 53.6933 49.7104 53.477 49.5852C53.3955 49.5385 53.3148 49.4911 53.2348 49.4422C52.5052 49 51.843 48.6393 51.2104 48.3407C51.1089 48.2933 51.0081 48.2444 50.9074 48.1963C50.5311 48.0163 50.1437 47.8296 49.7385 47.6911ZM38.863 56.9785C38.8163 56.937 38.7704 56.8933 38.7259 56.8504L38.6474 56.7763C38.0563 56.2259 37.5518 55.7185 37.1044 55.2259C36.64 54.7133 36.22 54.1667 35.9059 53.7467C35.5533 53.2785 35.143 52.7193 34.7726 52.1207C34.4289 51.5607 34.1348 51.0378 33.8733 50.523C33.7763 50.3304 33.6859 50.1348 33.5956 49.94C33.4644 49.657 33.3289 49.3644 33.1733 49.0837C33.1615 49.0622 33.1533 49.0452 33.1489 49.0333C33.1622 49.0282 33.1815 49.0215 33.2089 49.0148C33.417 48.9615 33.6259 48.8993 33.8274 48.8393C34.2244 48.7207 34.5993 48.6096 34.9874 48.5526C35.32 48.5037 35.6533 48.4378 35.9756 48.3733C36.6556 48.2385 37.3607 48.0985 38.0622 48.123C38.1985 48.1281 38.3281 48.1141 38.4548 48.1007C38.5415 48.0919 38.6274 48.0822 38.7163 48.08C38.797 48.077 38.8378 48.0793 38.8585 48.0822C38.863 48.103 38.8674 48.143 38.8681 48.223C38.8741 48.6274 38.8733 49.0326 38.8726 49.4378L38.8718 49.8496C38.8718 51.5637 38.8718 53.2756 38.8696 54.9896C38.8696 55.6385 38.8674 56.2882 38.8622 56.9407L38.863 56.9785ZM36.5704 39.0252C36.3378 39.0252 36.1059 39.0252 35.8733 39.0252L35.1741 39.0237C33.98 39.0237 32.7859 39.0237 31.5941 39.0215C31.4807 39.0215 31.4296 39.0148 31.4067 39.0089C31.403 38.983 31.4015 38.9274 31.4111 38.8119C31.437 38.4985 31.4756 38.1793 31.5118 37.8711C31.5504 37.5474 31.5904 37.2133 31.617 36.8822C31.6437 36.563 31.7193 36.2519 31.8 35.923C31.8578 35.6852 31.9185 35.4385 31.9578 35.1889C32.0037 34.8956 32.0911 34.6185 32.1837 34.3237C32.2704 34.0489 32.36 33.7652 32.4118 33.4682C32.4178 33.4326 32.4244 33.4104 32.4289 33.3978C32.4496 33.3993 32.4889 33.4059 32.5637 33.4267L32.6941 33.4644C33.4556 33.6852 34.243 33.9126 35.0496 34.0444C35.2926 34.0837 35.5348 34.1289 35.7763 34.1741C36.2385 34.2607 36.7156 34.3496 37.1956 34.3963C37.5793 34.4341 37.9689 34.4519 38.3459 34.4682L38.6326 34.4815C38.6948 34.4844 38.8044 34.4896 38.8496 34.5007C38.86 34.5482 38.8607 34.66 38.8607 34.7C38.863 35.2822 38.8637 35.8637 38.8644 36.4459C38.8652 37.2719 38.8667 38.0978 38.8718 38.9222C38.8718 38.9896 38.8607 39.0126 38.8622 39.0133C38.857 39.0163 38.8296 39.0282 38.7318 39.0282C38.0111 39.0259 37.2911 39.0252 36.5704 39.0252ZM34.337 46.4141C34.0933 46.4748 33.8407 46.5378 33.5941 46.5859C33.2452 46.6526 32.9126 46.76 32.5918 46.8644L32.3956 46.9274C32.3704 46.7637 32.3185 46.6141 32.2681 46.4689C32.2415 46.3911 32.2141 46.3133 32.1918 46.2333C31.9956 45.5378 31.7556 44.6193 31.6356 43.6844L31.5918 43.3496C31.5059 42.6963 31.417 42.0215 31.4022 41.3548C31.4015 41.3111 31.4059 41.2896 31.4044 41.2844C31.4148 41.2815 31.4415 41.2763 31.5059 41.2763C32.0889 41.2726 32.6741 41.2726 33.2578 41.2726C33.6644 41.2719 34.0704 41.2719 34.4763 41.2726L38.4474 41.2748C38.6274 41.2748 38.8141 41.2748 38.8489 41.2933C38.8733 41.3341 38.8733 41.523 38.8733 41.7119C38.8711 43.0215 38.8711 44.3311 38.8711 45.6407C38.8711 45.697 38.8711 45.7689 38.8674 45.8148C38.8222 45.817 38.7556 45.8148 38.7178 45.8141C37.7785 45.7896 36.8496 45.9444 35.9541 46.0933C35.7578 46.1259 35.5615 46.1585 35.3644 46.1896C35.0126 46.2459 34.6689 46.3311 34.337 46.4141ZM38.8622 27.6185H38.8585V29.1941C38.8593 30.1163 38.8593 31.0393 38.8585 31.9615C38.8585 32.0563 38.8585 32.1711 38.8504 32.2259C38.7933 32.2311 38.6741 32.2237 38.5985 32.2185C37.3296 32.1319 36.2163 31.9837 35.1956 31.7674C34.9156 31.7081 34.6318 31.6296 34.3585 31.5541C33.9978 31.4541 33.6252 31.3511 33.2437 31.2867C33.2385 31.2859 33.2341 31.2852 33.2296 31.2844C33.2341 31.2733 33.2407 31.2607 33.2481 31.2452C33.3607 31.0185 33.4696 30.7896 33.5785 30.5607C33.6993 30.3059 33.82 30.0511 33.9467 29.8L33.9681 29.7578C34.1141 29.4689 34.2652 29.1704 34.4489 28.9133C34.577 28.7378 34.6867 28.5526 34.7926 28.3741C34.8718 28.2407 34.9541 28.1022 35.0407 27.9726C35.3089 27.5719 35.6281 27.1 35.9704 26.6444C36.2807 26.2311 36.6304 25.8333 36.9689 25.4481C37.0593 25.3452 37.1489 25.2422 37.2385 25.14C37.7163 24.5941 38.2481 24.0681 38.8637 23.5319V27.6185H38.8622ZM35.4889 23.6874C35.2711 23.917 35.0452 24.1541 34.8385 24.4059C34.4644 24.8637 34.12 25.3341 33.8 25.7756C33.7274 25.8756 33.6533 25.9748 33.5785 26.0741C33.3126 26.4296 33.0378 26.7978 32.8163 27.1956C32.7163 27.3748 32.6126 27.5519 32.5089 27.7296C32.3022 28.0822 32.0889 28.4459 31.9074 28.8267C31.8296 28.9904 31.7481 29.1533 31.6674 29.3156C31.4844 29.6807 31.2956 30.0593 31.1467 30.4526C31.1326 30.4904 31.1207 30.5111 31.1141 30.5222C31.0985 30.5193 31.0689 30.5104 31.0148 30.4859C30.3156 30.1719 29.4007 29.7489 28.5222 29.2593C28.1296 29.0407 27.7378 28.7948 27.3585 28.5578L27.3244 28.5363C27.3141 28.5296 27.3052 28.5237 27.2978 28.5193C27.3067 28.5082 27.32 28.4941 27.3385 28.4756L27.3393 28.4748C27.4659 28.3519 27.5904 28.2252 27.7148 28.0985C27.9163 27.8933 28.1244 27.6815 28.3415 27.4881C28.6748 27.1881 29.0526 26.8482 29.4541 26.5519L29.5644 26.4696C29.803 26.2926 30.043 26.1148 30.2815 25.9393C30.5096 25.7719 30.7718 25.6007 31.0815 25.417C31.1644 25.3681 31.2481 25.3185 31.3311 25.2689C31.6518 25.0778 31.983 24.88 32.3215 24.7296C32.4704 24.6637 32.6178 24.5963 32.7652 24.5281C33.04 24.4015 33.3237 24.2711 33.6081 24.1593C34.0741 23.9756 34.56 23.8215 35.0296 23.6726C35.2326 23.6081 35.4356 23.5437 35.6415 23.4756C35.6622 23.4682 35.6837 23.463 35.7037 23.4585C35.6326 23.5356 35.5607 23.6111 35.4889 23.6874ZM29.8126 32.4452C29.8926 32.4815 29.9733 32.5089 30.0511 32.5356C30.1407 32.5667 30.2259 32.5956 30.3015 32.6348C30.3067 32.637 30.3104 32.64 30.3141 32.6415C30.3133 32.6437 30.3126 32.6459 30.3111 32.6489C30.0267 33.3859 29.8111 34.1659 29.6696 34.9667C29.6244 35.2178 29.5726 35.4682 29.52 35.7185C29.3711 36.4333 29.217 37.1719 29.2333 37.9341C29.237 38.1133 29.2156 38.2948 29.1926 38.4867C29.1748 38.6385 29.1556 38.7956 29.1504 38.9541C29.1496 38.9874 29.1474 39.0081 29.1452 39.0215C29.1341 39.0222 29.12 39.0237 29.097 39.0237C28.4718 39.017 27.8378 39.02 27.2252 39.023C26.9756 39.0244 26.7252 39.0252 26.4763 39.0259H26.0067L25.8141 39.0296C24.8733 39.0296 23.9341 39.0296 22.9926 39.0274C22.943 39.0274 22.8807 39.0274 22.8363 39.0252C22.837 38.9859 22.8407 38.9326 22.8444 38.883L22.8452 38.8681C22.9281 37.7237 23.0748 36.7904 23.3067 35.9311C23.3844 35.6444 23.4756 35.3556 23.5637 35.0763C23.6111 34.9274 23.6578 34.7785 23.703 34.6296C23.9133 33.9489 24.2156 33.2919 24.4815 32.7119C24.6696 32.3022 24.8963 31.9015 25.1156 31.5141C25.2193 31.3311 25.323 31.1482 25.423 30.9637C25.5104 30.8044 25.6207 30.6556 25.7378 30.4985C25.7881 30.4304 25.8385 30.363 25.8867 30.2948C26.5696 30.7711 27.3022 31.1807 28.0118 31.5763L28.1644 31.6615C28.64 31.9267 29.1444 32.1496 29.6326 32.3652L29.8126 32.4452ZM22.8667 41.277C23.6326 41.283 24.3985 41.2815 25.1652 41.2815L25.9318 41.2807L26.1244 41.2689H28.8956C28.923 41.2689 28.9489 41.2719 28.9763 41.2748C29.0215 41.2793 29.0733 41.2844 29.1259 41.2822C29.1326 41.2822 29.1385 41.2822 29.1437 41.2822C29.1459 41.2941 29.1474 41.3111 29.1489 41.3356C29.2118 42.7748 29.3622 44.0296 29.6096 45.1711C29.7585 45.8615 29.9681 46.7696 30.2704 47.6763C30.2718 47.68 30.2726 47.6837 30.2733 47.6867C30.2704 47.6882 30.2667 47.6889 30.263 47.6904C29.8578 47.8289 29.4704 48.0156 29.0956 48.1956C28.9948 48.2437 28.8941 48.2926 28.7926 48.34C28.16 48.6385 27.4978 48.9985 26.7681 49.4415C26.6889 49.4904 26.6074 49.537 26.5267 49.5837C26.3104 49.7089 26.0867 49.8378 25.8837 50.0044C25.843 49.9452 25.8015 49.8859 25.7607 49.8274C25.6081 49.6096 25.4511 49.3837 25.3215 49.1533C25.2659 49.0541 25.2059 48.9578 25.1459 48.8615L25.0815 48.757C24.72 48.1585 24.4178 47.5126 24.1696 46.96C23.8104 46.1585 23.5518 45.4163 23.3778 44.6904C23.3467 44.5615 23.3156 44.4333 23.2837 44.3044C23.0985 43.5533 22.9074 42.7756 22.8993 41.9904C22.897 41.757 22.8718 41.5289 22.823 41.3133C22.8193 41.2993 22.817 41.2867 22.8156 41.277C22.8289 41.2778 22.8452 41.277 22.8667 41.277ZM27.9918 51.3526C28.2741 51.1807 28.5652 51.0037 28.8607 50.8474C29.1504 50.6941 29.4496 50.5452 29.74 50.4015C29.9059 50.3193 30.0711 50.237 30.237 50.1533C30.3852 50.077 30.5385 50.0126 30.7007 49.9437C30.8126 49.8963 30.9237 49.8489 31.0348 49.7978C31.0356 49.7978 31.0363 49.797 31.037 49.797C31.0378 49.7978 31.0378 49.7993 31.0385 49.8C31.2393 50.2637 31.437 50.717 31.6548 51.1644C31.84 51.54 32.0481 51.9111 32.2489 52.2696L32.2874 52.3385C32.3978 52.537 32.517 52.7311 32.6326 52.9193L32.7659 53.137C33.1252 53.7333 33.4874 54.2733 33.8726 54.7882L33.9704 54.9178C34.2326 55.2674 34.5044 55.6281 34.7859 55.9756L34.8481 56.0526C35.0467 56.2993 35.2518 56.5548 35.4993 56.7763C35.4993 56.7763 35.4993 56.7763 35.5 56.7763C35.3533 56.7511 35.2111 56.6985 35.0637 56.6437C34.9422 56.5985 34.817 56.5519 34.6852 56.52H34.6844C34.3356 56.4356 33.9926 56.2978 33.6607 56.1644C33.5133 56.1052 33.3659 56.0459 33.2185 55.9911C32.8741 55.8615 32.5356 55.68 32.2081 55.5037C32.1133 55.4526 32.0185 55.4015 31.9222 55.3511C31.7118 55.2415 31.5015 55.1215 31.2978 55.0052C31.1918 54.9444 31.0852 54.8837 30.9763 54.823C30.8511 54.7541 30.7341 54.6719 30.6096 54.5852C30.5126 54.517 30.4156 54.4489 30.3156 54.3874C29.8978 54.1274 29.5518 53.877 29.2578 53.6222C29.1467 53.5252 29.0356 53.4296 28.9244 53.3333C28.4963 52.9652 28.0541 52.5837 27.6644 52.1644C27.5193 52.0074 27.4052 51.8904 27.2941 51.7844C27.2889 51.7793 27.2837 51.7741 27.28 51.7704C27.5222 51.6385 27.7607 51.4933 27.9918 51.3526Z" fill="#B7AB98"/>
<path d="M55.6413 71.5671L54.0283 72.3164L54.3179 72.9398L55.9309 72.1906L55.6413 71.5671Z" fill="#EB5939"/>
<path d="M54.9251 70.0239L53.3122 70.7731L53.5987 71.3898L55.2116 70.6405L54.9251 70.0239Z" fill="#EB5939"/>
<path d="M8.73835 52.1275L8.05235 52.4148L8.73939 54.0553L9.42539 53.768L8.73835 52.1275Z" fill="#EB5939"/>
<path d="M26.7757 70.8177L25.8865 73.0485L27.5316 73.7043L28.4209 71.4736L26.7757 70.8177Z" fill="#EB5939"/>
<path d="M66.1046 61.0358L64.951 62.3895L65.5171 62.8718L66.6706 61.5182L66.1046 61.0358Z" fill="#EB5939"/>
<path d="M69.2427 56.2962L68.3383 57.819L69.0084 58.2169L69.9127 56.6941L69.2427 56.2962Z" fill="#EB5939"/>
<path d="M78.4333 36.5185L70.4222 42.717C69.0459 58.2904 55.9267 70.5437 40 70.5437C24.0733 70.5437 10.9541 58.2926 9.57481 42.717L1.56667 36.5185C1.46222 37.6644 1.40889 38.8281 1.40889 40.0007C1.40889 61.3156 18.6874 78.5926 40 78.5926C61.3126 78.5926 78.5911 61.3156 78.5911 40.0015C78.5911 38.8281 78.5378 37.6644 78.4333 36.5185ZM74.54 41.6067C75.1822 41.6067 75.7015 42.1267 75.7015 42.7681C75.7015 43.4081 75.1815 43.9296 74.54 43.9296C73.8985 43.9296 73.3785 43.4074 73.3785 42.7681C73.3785 42.1267 73.8985 41.6067 74.54 41.6067ZM5.23556 41.6067C5.87704 41.6067 6.39704 42.1267 6.39704 42.7681C6.39704 43.4081 5.87704 43.9296 5.23556 43.9296C4.59556 43.9296 4.07407 43.4074 4.07407 42.7681C4.07407 42.1267 4.59556 41.6067 5.23556 41.6067ZM3.13852 46.1778L8.10667 45.0252L8.88371 48.3785C8.99926 48.8763 8.99037 49.2444 8.85482 49.4867C8.71926 49.7311 8.40593 49.9089 7.91333 50.0222L7.26445 50.1733C6.5363 50.3422 6.08296 50.0333 5.90074 49.2496L5.43852 47.2578L3.49259 47.7111L3.13852 46.1778ZM5.93259 55.2304L7.85407 54.4244L7.16815 52.7852L5.24667 53.5889L4.63778 52.1385L9.3437 50.1689L10.8319 53.7222C10.9763 54.0667 11.0119 54.3467 10.9385 54.5615C10.863 54.777 10.6563 54.957 10.3163 55.0993L9.72741 55.3459C9.28296 55.5304 8.91704 55.4304 8.62815 55.0459C8.68148 55.5304 8.49482 55.8607 8.06815 56.0407L6.54 56.6807L5.93259 55.2304ZM9.50889 61.5933L7.21926 57.9289L11.5459 55.2259L13.8356 58.8926L12.7185 59.5896L11.277 57.2822L10.7126 57.6356L12.0252 59.7385L11.1126 60.3096L9.79778 58.2067L9.24 58.5556L10.6793 60.863L9.50889 61.5933ZM11.3385 63.8741C11.1341 63.6385 10.9807 63.4252 10.8763 63.2326C10.7185 62.9393 10.6896 62.6659 10.7963 62.4133C10.8763 62.2244 11.0585 62.0089 11.3407 61.7644L13.1578 60.1941C13.5667 59.843 13.9304 59.7074 14.2526 59.7919C14.5126 59.8607 14.8281 60.1096 15.1985 60.5378L17.1756 62.8274L16.1785 63.6889L14.2015 61.3993L12.3822 62.9696L14.3607 65.2593L13.317 66.163L11.3385 63.8741ZM14.2237 66.9681L17.6704 63.2059L18.8496 64.2874L15.4052 68.0496L14.2237 66.9681ZM20.2 71.3385C19.9267 71.383 19.5733 71.2519 19.1452 70.943L16.3533 68.94L17.157 67.8163L19.8067 69.7178L20.1911 69.1822L18.5141 67.9807C18.1652 67.7296 17.9607 67.4963 17.9007 67.2793C17.8341 67.0393 17.9252 66.7481 18.1696 66.4067L18.5585 65.8667C18.8496 65.46 19.1363 65.24 19.4133 65.2067C19.6933 65.1756 20.0378 65.3067 20.4481 65.6L23.0444 67.4637L22.2763 68.5341L19.8244 66.7748L19.4356 67.3148L21.1111 68.5185C21.7593 68.983 21.8748 69.5067 21.4578 70.0911L21.0733 70.6267C20.7644 71.0548 20.4733 71.2919 20.2 71.3385ZM21.3659 72.3252L23.8222 67.8541L25.2259 68.6244L22.7696 73.0956L21.3659 72.3252ZM28.2178 75.1874C27.9444 75.263 27.5452 75.1963 27.0207 74.9874L25.377 74.3296C24.8526 74.1207 24.5178 73.8963 24.3711 73.6548C24.2044 73.3726 24.2222 72.9778 24.4267 72.4644L25.3148 70.2348C25.5104 69.7459 25.7726 69.4644 26.1007 69.3889C26.3696 69.3222 26.7578 69.3911 27.2644 69.5933L28.9104 70.2481C29.417 70.4504 29.7452 70.6681 29.8941 70.9015C30.0807 71.1837 30.0763 71.5674 29.883 72.0541L28.9948 74.2859C28.7911 74.797 28.5311 75.0985 28.2178 75.1874ZM34.6874 77.0022L32.9259 76.6311L31.8978 73.7437L31.3578 76.3022L29.8674 75.9867L30.9178 70.9963L32.6793 71.3674L33.7074 74.2548L34.2474 71.6963L35.7378 72.0118L34.6874 77.0022ZM45.5259 76.9578L43.9156 77.0978L43.2296 75.1104C43.1652 74.9215 43.1096 74.6837 43.0607 74.4H43.0474C43.0474 74.5622 43.0318 74.8044 43.003 75.1304L42.6652 77.2067L41.057 77.3489L39.3556 72.3763L40.917 72.2407L41.663 74.5148C41.7074 74.6526 41.7474 74.8015 41.7785 74.9593L41.7941 74.957L42.1874 72.1296L43.5067 72.0141L44.3837 74.7326L44.397 74.7304C44.4015 74.5681 44.4148 74.4148 44.437 74.2726L44.777 71.903L46.3363 71.7652L45.5259 76.9578ZM48.0222 76.4933L46.6474 71.5807L50.8096 70.417L51.1652 71.6852L48.5444 72.4178L48.7244 73.06L51.1119 72.3918L51.403 73.4289L49.0156 74.097L49.1933 74.7326L51.8119 74L52.1852 75.3304L48.0222 76.4933ZM57.603 72.6511C57.5319 72.8867 57.3163 73.0889 56.9607 73.2533L53.4785 74.8726L51.3311 70.2467L54.8244 68.6207C55.1644 68.4652 55.4422 68.4185 55.6593 68.483C55.877 68.5496 56.0637 68.7496 56.2193 69.083L56.4882 69.663C56.6548 70.023 56.6193 70.3378 56.3815 70.6089C56.7481 70.6111 57.0148 70.7978 57.1874 71.1667L57.4607 71.7578C57.6274 72.1163 57.6763 72.4141 57.603 72.6511ZM63.5511 68.9289C63.3133 69.1289 63.0978 69.28 62.9044 69.3822C62.6089 69.5378 62.3356 69.5622 62.083 69.4533C61.8963 69.3711 61.683 69.1867 61.4407 68.9022L59.8904 67.0674C59.5437 66.6563 59.4126 66.2904 59.5015 65.9681C59.5726 65.7104 59.8259 65.397 60.2585 65.0311L62.5681 63.0793L63.4185 64.0852L61.1089 66.0393L62.657 67.8741L64.9689 65.9222L65.8593 66.977L63.5511 68.9289ZM68.9859 63.4896L67.4 62.137L66.2474 63.4919L67.8333 64.8422L66.8119 66.0393L62.9296 62.7304L65.4304 59.7963C65.6726 59.5119 65.9059 59.3541 66.1296 59.323C66.3563 59.2918 66.6096 59.3963 66.8889 59.6341L67.3756 60.0496C67.7422 60.3607 67.8178 60.7333 67.6044 61.1667C68.0133 60.9 68.3926 60.9156 68.7437 61.2156L70.0052 62.2926L68.9859 63.4896ZM72.5437 58.2526L70.7889 57.2111L69.8852 58.7326L71.64 59.7741L70.8385 61.1267L67.5363 59.1681C67.1052 58.9104 66.883 58.6126 66.8659 58.2689C66.8548 57.9933 66.9837 57.6274 67.2548 57.1719L68.963 54.2956L73.3496 56.9007L72.5437 58.2526ZM73.9519 55.5918L69.2081 53.7193L70.7741 49.7526L71.9978 50.237L71.0207 52.7156L71.6407 52.96L72.4867 50.817L73.4882 51.2126L72.6422 53.3556L74.5415 54.1037L73.9519 55.5918ZM76.1993 49.0496L72.5104 48.2148L72.1659 49.7341L70.88 49.443L71.9215 44.8415L73.2074 45.1326L72.863 46.6518L76.5518 47.4867L76.1993 49.0496Z" fill="#EB5939"/>
<path d="M7.17705 46.8526L6.49374 47.0111L6.87308 48.6468L7.55639 48.4884L7.17705 46.8526Z" fill="#EB5939"/>
<defs>
<linearGradient id="paint0_linear_219_669" x1="18.7701" y1="7.62868" x2="18.7701" y2="7.92935" gradientUnits="userSpaceOnUse">
<stop offset="0.176" stop-color="#E24C00"/>
<stop offset="0.8798" stop-color="#281715"/>
</linearGradient>
<linearGradient id="paint1_linear_219_669" x1="61.2303" y1="7.62868" x2="61.2303" y2="7.92935" gradientUnits="userSpaceOnUse">
<stop offset="0.176" stop-color="#E24C00"/>
<stop offset="0.8798" stop-color="#281715"/>
</linearGradient>
</defs>
</svg>
